<svg xmlns="http://www.w3.org/2000/svg" viewBox="0 0 1049.06 793.64"><defs><style>.cls-1{fill:#cf7659;}.cls-2{fill:#4d565e;}.cls-10,.cls-11,.cls-2,.cls-3,.cls-4,.cls-6,.cls-7{fill-rule:evenodd;}.cls-3{fill:#343b42;}.cls-4,.cls-5{fill:#e6e6e6;}.cls-6{fill:#fdda79;}.cls-7{fill:#ffbd39;}.cls-8{fill:gray;}.cls-9{fill:#f77b55;}.cls-10{fill:#e6e5e5;}.cls-11{fill:#363f48;}</style></defs><g id="Layer_2" data-name="Layer 2"><g id="Coding"><g id="Coding-2" data-name="Coding"><g id="Coding-3" data-name="Coding"><path id="Compound" class="cls-1" d="M764.94,46.28V279H342v-235h423Zm-6.24,48.5H705.53v41.39H758.7Zm-59.62,0H645.9v41.39h53.18Zm-59.41,0H586.49v41.39h53.18Zm-59.62,0H526.87v41.39h53.18Zm-59.42,0h-53.4v41.39h53.4Zm-59.62,0H407.84v41.39H461Zm-59.41,0H348.21v41.39H401.6Zm-53.39-4.67H401.6V48.73H348.21Zm59.63,0H461V48.73H407.84Zm59.39,0h53.4V48.73h-53.4Zm59.64,0h53.18V48.73H526.87Zm59.62,0h53.18V48.73H586.49Zm59.41,0h53.18V48.73H645.9Zm59.63,0H758.7V48.73H705.53Zm53.17,50.73H705.53v41.38H758.7Zm-59.62,0H645.9v41.38h53.18Zm-59.41,0H586.49v41.38h53.18Zm-59.62,0H526.87v41.38h53.18Zm-59.42,0h-53.4v41.38h53.4Zm-59.62,0H407.84v41.38H461Zm-59.41,0H348.21v41.38H401.6Zm357.1,46H705.53v41.39H758.7Zm-59.62,0H645.9v41.39h53.18Zm-59.41,0H586.49v41.39h53.18Zm-59.62,0H526.87v41.39h53.18Zm-59.42,0h-53.4v41.39h53.4Zm-59.62,0H407.84v41.39H461Zm-59.41,0H348.21v41.39H401.6ZM758.7,233H705.53v41.39H758.7Zm-59.62,0H645.9v41.39h53.18Zm-59.41,0H586.49v41.39h53.18Zm-59.62,0H526.87v41.39h53.18Zm-59.42,0h-53.4v41.39h53.4ZM461,233H407.84v41.39H461Zm-59.41,0H348.21v41.39H401.6Z"/><g id="Laptop"><path class="cls-2" d="M231.62,269.88H815.67a21.66,21.66,0,0,1,21.58,21.81V690.62H209.81V291.69a21.85,21.85,0,0,1,21.81-21.81Z"/><path class="cls-3" d="M112.8,763.61H934.48c2.23,0,1.78-1.79-.9-3.79L845.26,692c-2.68-2.22-6.89-3.78-9.13-3.78h-625c-2.22,0-6.44,1.56-9.11,3.78L113.7,759.82c-2.68,2-3.13,3.79-.9,3.79Z"/><path class="cls-2" d="M115.92,758.71H931.37c6,0,6.67,5.12,1.33,11.34l-11.13,12.46c-5.56,6.24-14.9,11.13-21.14,11.13H146.84c-6.22,0-15.57-4.89-21.13-11.13l-11.13-12.46c-5.33-6.22-4.89-11.34,1.34-11.34Z"/><polygon class="cls-4" points="459.67 725.78 494.16 725.78 553.11 725.78 587.61 725.78 606.97 746.92 533.76 746.92 513.52 746.92 440.32 746.92 459.67 725.78"/><rect class="cls-5" x="229.61" y="297.03" width="588.06" height="372.23"/></g><g id="Circle"><path class="cls-6" d="M124.82,676.39c68.75,0,124.82-56.08,124.82-124.83S193.57,426.74,124.82,426.74,0,482.82,0,551.56,56.06,676.39,124.82,676.39Z"/><path class="cls-7" d="M854.16,411.83c107.24,0,194.9-87.43,194.9-194.9,0-107.24-87.66-194.68-194.9-194.68S659.25,109.69,659.25,216.93c0,107.47,87.67,194.9,194.91,194.9Z"/></g><g id="Codes"><rect class="cls-8" x="270.55" y="367.78" width="324.62" height="18.47"/><rect class="cls-8" x="459.9" y="404.05" width="192.46" height="15.79"/><rect class="cls-8" x="281.89" y="437.42" width="192.24" height="15.8"/><rect class="cls-8" x="281.89" y="507.29" width="192.24" height="15.8"/><rect class="cls-8" x="281.89" y="535.1" width="192.24" height="16.02"/><rect class="cls-9" x="490.82" y="535.1" width="60.74" height="16.02"/><rect class="cls-8" x="572.7" y="535.1" width="60.74" height="16.02"/><rect class="cls-8" x="495.94" y="508.18" width="137.5" height="15.8"/><rect class="cls-8" x="517.08" y="437.42" width="103.68" height="15.8"/><rect class="cls-8" x="295.47" y="404.05" width="55.62" height="15.79"/><rect class="cls-9" x="375.12" y="404.05" width="55.62" height="15.79"/><rect class="cls-9" x="630.55" y="367.78" width="49.62" height="18.47"/><rect class="cls-8" x="281.89" y="574.26" width="61.41" height="15.8"/><rect class="cls-9" x="363.78" y="574.26" width="61.41" height="15.8"/><rect class="cls-8" x="452.11" y="574.26" width="99.45" height="15.8"/></g><g id="Text"><path class="cls-2" d="M46.72,556.68v-10l57.63-24.47v10.68L58.73,551.56l45.62,19.13v10.69ZM111,596.06l25.37-89.88h8.67L119.7,596.06Zm98.12-39.38-57.4,24.7V570.69l45.39-19.13-45.39-18.68V522.2l57.4,24.47Z"/><polygon class="cls-2" points="712.65 216.71 712.65 206.92 757.15 183.11 757.15 193.57 721.77 211.81 757.15 230.51 757.15 240.96 712.65 216.71"/><path class="cls-2" d="M806.54,218l7.35,1.12c-.9,5.12-2.9,9.12-6.23,12a18.44,18.44,0,0,1-12.47,4.23q-9,0-14.68-6c-3.79-4-5.57-9.57-5.57-17.13a31.32,31.32,0,0,1,2.45-12.68,17.68,17.68,0,0,1,7.34-8.23,21.21,21.21,0,0,1,10.69-2.68,18.69,18.69,0,0,1,11.79,3.79,17.13,17.13,0,0,1,6,10.45L805.87,204a12.11,12.11,0,0,0-3.78-6.9,10.78,10.78,0,0,0-6.45-2.22,11.61,11.61,0,0,0-9.35,4.22c-2.45,2.67-3.55,6.9-3.55,12.91s1.1,10.46,3.33,13.12a11.66,11.66,0,0,0,9.12,4,11.22,11.22,0,0,0,7.57-2.67c2-1.78,3.11-4.67,3.78-8.46Z"/><path class="cls-2" d="M817.45,212c0-8.23,2.44-14.46,7.12-18.25a21.9,21.9,0,0,1,29.14.89c3.79,4,5.78,9.79,5.78,16.69,0,5.78-.89,10.46-2.66,13.57a17.79,17.79,0,0,1-7.34,7.79,23.28,23.28,0,0,1-10.91,2.67q-9.35,0-15.34-6c-3.79-4-5.79-9.79-5.79-17.35Zm7.78,0c0,5.78,1.33,10,3.79,12.9a12.36,12.36,0,0,0,9.56,4.23,11.63,11.63,0,0,0,9.35-4.23c2.67-2.89,3.78-7.12,3.78-13.13,0-5.56-1.34-9.56-3.78-12.46a11.62,11.62,0,0,0-9.35-4.22,12.35,12.35,0,0,0-9.56,4.22c-2.46,2.67-3.79,7.12-3.79,12.69Z"/><path class="cls-2" d="M897.32,234.51V229c-2.66,4.22-6.89,6.45-12.47,6.45a16.82,16.82,0,0,1-9.78-2.9,19.89,19.89,0,0,1-7.12-8.22A30.15,30.15,0,0,1,865.51,212a34.12,34.12,0,0,1,2.22-12,17.9,17.9,0,0,1,16.68-11.35,15.6,15.6,0,0,1,7.35,1.78,16.43,16.43,0,0,1,5.12,4.46V172.65h7.56v61.86Zm-24-22.25c0,5.56,1.33,10,3.78,12.68a10.87,10.87,0,0,0,8.46,4.23,10.62,10.62,0,0,0,8.45-4c2.45-2.66,3.56-6.9,3.56-12.45,0-6-1.11-10.46-3.56-13.36a11,11,0,0,0-17.13-.22c-2.45,2.67-3.56,7.12-3.56,13.13Z"/><path class="cls-2" d="M947.16,220.05l7.79.89a18.11,18.11,0,0,1-6.9,10.68c-3.34,2.67-7.57,3.78-12.69,3.78-6.66,0-11.79-2-15.56-6S914,219.82,914,212.48c0-7.56,2-13.35,5.79-17.57a20.07,20.07,0,0,1,15.12-6.24c6,0,10.91,2,14.69,6.24,3.79,4,5.56,9.78,5.56,17.13v2H921.8c.22,4.89,1.55,8.67,4.22,11.35a11.93,11.93,0,0,0,9.34,3.78,11.33,11.33,0,0,0,7.13-2.23c2-1.33,3.56-3.78,4.67-6.89Zm-24.92-12.24h24.92c-.23-3.78-1.33-6.67-2.89-8.46a11.81,11.81,0,0,0-9.35-4.44,11.11,11.11,0,0,0-8.68,3.56q-3.68,3.33-4,9.34Z"/><polygon class="cls-2" points="1017.69 216.71 973.2 240.96 973.2 230.51 1008.35 211.81 973.2 193.57 973.2 183.11 1017.69 206.92 1017.69 216.71"/></g><g id="Gears"><path class="cls-4" d="M235,144a55.73,55.73,0,0,1,17.13,14.25l21.37-7.79,12,33.15-21.36,7.79a47.85,47.85,0,0,1-.89,11.12,53,53,0,0,1-2.9,10.68l17.36,14.68L255,254.76l-17.36-14.47a56,56,0,0,1-20.91,7.57l-4,22.25-34.48-6L182,241.63a55.84,55.84,0,0,1-17.13-14.24l-21.15,7.79L131.49,202l21.36-7.78a65,65,0,0,1,.89-11.13,54,54,0,0,1,3.12-10.68l-17.59-14.68L162,130.83l17.35,14.68a55.71,55.71,0,0,1,20.91-7.79l4-22.25,34.71,6Z"/><path class="cls-10" d="M469,71a81.9,81.9,0,0,1,10.9,30.93l32.71,6.23-9.57,50.51-32.71-6A90.34,90.34,0,0,1,461,166a80.93,80.93,0,0,1-11.79,11.35l10.89,31.37-48.72,17.13-10.9-31.37a79.61,79.61,0,0,1-32-6l-21.8,25.14L307.48,180l21.81-25.15a81.79,81.79,0,0,1-10.9-30.92l-32.71-6,9.57-50.72,32.71,6a90.27,90.27,0,0,1,9.33-13.35,83.59,83.59,0,0,1,12-11.35L338.19,17.13,386.92,0l10.9,31.37a85.47,85.47,0,0,1,32.26,6l21.58-25.15,39.16,33.6Z"/><path class="cls-11" d="M211.59,175.55a17.5,17.5,0,0,1-6,34.49,17.51,17.51,0,1,1,6-34.49Zm2.89-16.91a34.67,34.67,0,1,1-40,28.25,34.63,34.63,0,0,1,40-28.25Z"/><path class="cls-11" d="M416.06,93.45a25.71,25.71,0,1,1-36.48,2.67,25.71,25.71,0,0,1,36.48-2.67ZM432.3,74.53a50.73,50.73,0,1,1-71.64,5.35,50.71,50.71,0,0,1,71.64-5.35Z"/></g></g></g></g></g></svg>