<svg xmlns="http://www.w3.org/2000/svg" viewBox="0 0 601.94 689.32"><defs><style>.cls-1{fill:#f4d242;}.cls-2{fill:#59595b;}.cls-3{fill:#808183;}.cls-4{fill:#fff;}</style></defs><g id="Layer_2" data-name="Layer 2"><g id="Objects"><path class="cls-1" d="M500.36,321.62c0-109.3-88.6-197.9-197.9-197.9S104.19,213,104.57,322.31a197.24,197.24,0,0,0,57.77,139,224.5,224.5,0,0,1,58.15,99.83l15.95,59H366.17l15.11-55.9A225.13,225.13,0,0,1,441.2,462.73,197.25,197.25,0,0,0,500.36,321.62Z"/><path class="cls-2" d="M332.43,689.32H269.18c-17.92,0-33.25-13.24-34.27-30l-5.34-64.81,143.24-.91-6.11,65.72C365.68,676.08,350.35,689.32,332.43,689.32Z"/><path class="cls-3" d="M359.94,621.83c-40,1.71-80.18-.34-120.19,1.43-3.55.15-3.28,5.34.2,5.46,40.05,1.33,80.19-1.15,120.24.12C364.69,629,364.49,621.63,359.94,621.83Z"/><path class="cls-3" d="M359.94,639.21c-40,1.71-80.18-.34-120.19,1.43-3.55.16-3.28,5.34.2,5.46,40.05,1.33,80.19-1.15,120.24.12C364.69,646.36,364.49,639,359.94,639.21Z"/><path class="cls-1" d="M318.6,23.09c0,12.75-6.78,58.6-15.15,58.6s-15.14-45.85-15.14-58.6S295.09,0,303.45,0,318.6,10.34,318.6,23.09Z"/><path class="cls-1" d="M507.31,93.51c-9.67,8.31-40,43.33-34.57,49.67s44.64-18.39,54.31-26.7,13.1-20.19,7.65-26.54S517,85.19,507.31,93.51Z"/><path class="cls-1" d="M580.86,298.1c-12.65,1.61-59,.65-60-7.64s43.58-20.8,56.23-22.41,23.76,3.82,24.81,12.11S593.51,296.49,580.86,298.1Z"/><path class="cls-1" d="M116.92,78.28c10,7.86,42,41.47,36.79,48.05S108.28,110,98.24,102.13,84.24,82.55,89.4,76,106.88,70.41,116.92,78.28Z"/><path class="cls-1" d="M21.08,265.32c12.65,1.61,59,.66,60-7.64s-43.57-20.8-56.22-22.41S1.13,239.09.08,247.39,8.43,263.72,21.08,265.32Z"/><path class="cls-4" d="M387.88,422.38A50.93,50.93,0,0,1,373,404.78c7.18-8.86,10.34-20.77,11.66-31.85a200.87,200.87,0,0,0,1.14-20.37c.1-6.57-.76-12.14-6.32-16.23-5-3.65-11.58-.36-15.39,3.18-4.39,4.08-6.51,10.76-8.21,16.33-3.42,11.23-3.36,23.28-1.21,34.73A69,69,0,0,0,358,402.29a30.41,30.41,0,0,1-9.51,5.06c-10.81,3.46-19-2.77-24-12q-1.25-2.28-2.34-4.79c.85-2.28,1.66-4.56,2.42-6.81a142.19,142.19,0,0,0,6.63-33.93c.76-9.53,1-20.91-8.14-26.56-2.94-1.82-6.26-.44-8.11,2.13-13.4,18.58-12.64,43.23-5.37,64.32a139.93,139.93,0,0,1-8.14,16.3c-3.36,5.78-9.77,14.7-17.55,13.57-7.25-1.05-13-10.14-16.64-15.77a64,64,0,0,1-6.34-13.09q1.38-3.63,2.56-7.35A134.83,134.83,0,0,0,269,353.34c.67-8.49.94-20.42-8.34-24.48-2.7-1.18-6.69-1.06-8.12,2.13A85,85,0,0,0,248,388.25c.18.65.38,1.3.58,1.95A125.66,125.66,0,0,1,224,429.08c-4.67,5.07,2.72,12.54,7.58,7.58a131.85,131.85,0,0,0,23-31.88,83.86,83.86,0,0,0,6,9.66c6.06,8.39,13.66,16.26,24.57,16.84,10.19.55,18.47-8,24-15.46a80.64,80.64,0,0,0,7-11.52c5,7.95,12.19,14.26,22,15.63,9,1.26,17.76-1.54,25.15-6.49a75.08,75.08,0,0,0,16.45,19.47C387.2,439.14,395.71,428.1,387.88,422.38Zm-68.17-82.54c.42,4.74-.67,10.59-.94,13.47a113,113,0,0,1-2.61,15.59C314.92,358.79,315.75,348.43,319.71,339.84ZM366,369.66a56.28,56.28,0,0,1,3.31-14.41,29.25,29.25,0,0,1,2.88-6,12.19,12.19,0,0,1,.93-1.16,8.46,8.46,0,0,1,.23,1.44c.63,12-.36,25-4.1,36.41a35.34,35.34,0,0,1-1.65,4.14A67.64,67.64,0,0,1,366,369.66Z"/><path class="cls-4" d="M399.13,393.27c-21,64.22-43.19,128.13-67,191.39-2.85,7.57,8.82,12.21,11.65,4.64,23.72-63.35,45.74-127.28,65.49-192C411.32,390.64,401.34,386.54,399.13,393.27Z"/><path class="cls-4" d="M207.74,389.21c16.8,65.46,32.48,131.25,46.44,197.38,1.67,7.92,14,5.56,12.32-2.34-14.08-66.17-29.88-131.91-48-197.09C216.61,380.44,206,382.35,207.74,389.21Z"/></g></g></svg>