<svg xmlns="http://www.w3.org/2000/svg" viewBox="0 0 255.66 286.51"><defs><style>.cls-1{fill:#ffbd39;}.cls-2{fill:#263238;}.cls-3,.cls-4{fill:none;stroke:#263238;stroke-miterlimit:10;}.cls-4{stroke-width:6px;}</style></defs><g id="Layer_2" data-name="Layer 2"><g id="Sketch_Lines" data-name="Sketch Lines"><path class="cls-1" d="M49.56,83.48c-.22,0-.44,0-.65,0a5.31,5.31,0,0,1-4.07-2.67,2.54,2.54,0,0,1-.31-.94c-3.09,2-5,2.78-6.64,2.45a3.1,3.1,0,0,1-2.12-1.51,2.51,2.51,0,0,1-.2-2.61l-6.07,3.5a2.42,2.42,0,0,1-1.84.24,2.38,2.38,0,0,1-1.48-1.13c-.79-1.36-.47-2.67.68-4.14-.81.61-1.67,1.23-2.56,1.88S22.48,79.84,22,80.21l-.27.31a2.45,2.45,0,0,1-2.07.8,2.42,2.42,0,0,1-1.86-1.2A2.23,2.23,0,0,1,18.32,77l.74-.81a2.41,2.41,0,0,1-1.17-1,1,1,0,0,1-.08-.14c-1.09-1.88-.2-3.84.75-5.43a2.53,2.53,0,0,1-.75-.81,2.43,2.43,0,0,1,.89-3.32,2.47,2.47,0,0,1,.63-.26c.35-.2,1-.64,1.65-1a2.44,2.44,0,0,1,3.48.79,4.07,4.07,0,0,1,.33,3.25L32,64.08a2.45,2.45,0,0,1,1.78-.26,11.1,11.1,0,0,1,6-1.65A5.41,5.41,0,0,1,44.05,65a2.71,2.71,0,0,1,.18,2.58l6-3.47a2.43,2.43,0,0,1,3.46,3c4-2.91,5.9-3.85,7.54-3.52A2.81,2.81,0,0,1,63.15,65c.45.76,1.41,2.42-1.18,5.77,2.2-1.95,4.4-4.1,6.37-6.22a2.48,2.48,0,0,1,2.06-.76A2.43,2.43,0,0,1,72.23,65c1.08,1.87.36,2.83-5.83,8.79a126.25,126.25,0,0,0,11.84-9.4,2.46,2.46,0,0,1,2-.58A2.41,2.41,0,0,1,82,65a2.28,2.28,0,0,1,.2,2.26l5.46-3.15a2.44,2.44,0,0,1,2.8,4c-2.81,2.41-5.86,5.16-8.24,7.46,1.07-.66,2.35-1.5,3.88-2.57,3-3.41,7.93-6.66,11.59-8.83h0a2.06,2.06,0,0,1,1.68-.31,2.44,2.44,0,0,1,.83,4.47c-.2.15-.58.47-1.12.9-3.78,3-7,5.52-9.8,7.49a7.91,7.91,0,0,0-.88,1.17c3-1,9.75-6.56,12.83-9.09,5.25-4.31,6.55-5.32,8.22-5a2.64,2.64,0,0,1,1.8,1.26,4.85,4.85,0,0,1,.7,2.57l6-3.46a2.43,2.43,0,0,1,3.29,3.38l5.86-3.38A2.42,2.42,0,0,1,130.7,66c3.49-2.15,5.29-2.76,6.74-2.44a3,3,0,0,1,1.28.62c2.49-1.41,4.9-2.27,6.92-2.06a5.44,5.44,0,0,1,4.1,2.49c2.24-1.43,4.14-2.11,5.88-1.83a4.3,4.3,0,0,1,3.1,2.16c1.14,2,.47,4.21-2.58,7.37a98.64,98.64,0,0,0,8.65-7.86,2.43,2.43,0,0,1,3.84.49,5.11,5.11,0,0,1,.56,3.63c2.08-1.43,4.18-2.92,6.17-4.38a2.42,2.42,0,0,1,1.93-.42A2.45,2.45,0,0,1,178.9,65a4.62,4.62,0,0,1,.62,2.2l5.36-3.09a2.42,2.42,0,0,1,3.32.89,2.63,2.63,0,0,1,.29,2.3L194,64.06a2.42,2.42,0,0,1,3.32.89,3.37,3.37,0,0,1-.14,3.8c1.75-1.39,3.53-2.88,5.27-4.41a2.41,2.41,0,0,1,2-.58,2.45,2.45,0,0,1,1.51.88c2-1.57,4-2.48,5.91-2.25a4.75,4.75,0,0,1,3.55,2.36c2.11-1.57,4.09-2.48,6-2.24a4.64,4.64,0,0,1,3.5,2.43,2.36,2.36,0,0,1,.31,1.43c3.51-2.33,5.6-3.23,7.24-2.88a3,3,0,0,1,2,1.45,4.22,4.22,0,0,1,.53,3l6.65-3.84a2.44,2.44,0,0,1,3.32.89c1.8,3.11-1.83,5.27-6,7.76-2,1.17-6.38,3.79-7.18,5.26,2.91-.47,11.5-6.48,19.31-13.6a2.43,2.43,0,0,1,3.75.58,4.76,4.76,0,0,1-.15,4.7,4.62,4.62,0,0,1,.5.7c.7,1.22.59,2.76-.34,4.6a2.73,2.73,0,0,1,.35.47,2.44,2.44,0,0,1-.89,3.33l-5,2.9a2.43,2.43,0,0,1-3.14-3.6c-1.95,1.36-3.93,2.59-5.65,3.59a2.42,2.42,0,0,1-3.14-.6.66.66,0,0,1-.12-.17c-2.62,1.39-5,2.2-6.75,1.93a4.18,4.18,0,0,1-3-2,4.88,4.88,0,0,1-.71-2.46L221,81.64a2.44,2.44,0,0,1-3.33-.89A4.53,4.53,0,0,1,217,78.3c-4.63,3.3-6.36,4.14-8,3.8a2.82,2.82,0,0,1-1.87-1.35,4.34,4.34,0,0,1-.41-1c-2.45,2.13-4.37,3.21-6.28,3a3.9,3.9,0,0,1-2.89-2,2.46,2.46,0,0,1-.28-.77c-2.28,2-4.18,3.07-6,2.84a4,4,0,0,1-3-2c-2.59,1.34-4.92,2.11-6.58,1.84a4,4,0,0,1-2.84-1.92,3.91,3.91,0,0,1-.57-2l-5,2.86a2.44,2.44,0,0,1-1.85.24A2.39,2.39,0,0,1,170,80.76a3.08,3.08,0,0,1-.4-2.24l-1,.6c-2,1.26-3.72,2.19-4.46,2.58a2.44,2.44,0,0,1-3.27-1,2.34,2.34,0,0,1-.28-.87c-3.4,1.81-5.73,2.59-7,2.33a3,3,0,0,1-1.64-.94c-2.55,1.4-5,2.22-6.9,2a4.88,4.88,0,0,1-3.71-2.46c-1.12-1.92.52-3.11,1.84-4.06,6.44-4.64,9.22-7.24,10.41-8.66-2.54,1.33-7,5.36-9.4,7.5-5.38,4.85-8.06,7.16-10.52,6.77a3.11,3.11,0,0,1-2.25-1.55,5.22,5.22,0,0,1-.49-4.1c-.59.57-1.17,1.14-1.74,1.72l-2.66,2.84a2.43,2.43,0,0,1-3.58-3.3c.39-.43,1-1.14,1.86-2l-.24.17c-7.66,5.36-9.15,6.29-10.82,5.92A2.63,2.63,0,0,1,112,80.77a2.43,2.43,0,0,1,0-2.34l-5.6,3.23a2.43,2.43,0,0,1-3.32-.89,2.62,2.62,0,0,1-.4-2.24l-5.43,3.13a2.43,2.43,0,0,1-3.32-.89,1.91,1.91,0,0,1-.15-.28c-2.81,1.73-5.15,2.6-7,2.26a4,4,0,0,1-2.82-2q-.14-.24-.24-.48c-3.35,1.89-5.71,2.59-7.39,2.27a3.67,3.67,0,0,1-2.58-1.79c-.43-.73-.83-1.43.1-3l-6.83,4a2.44,2.44,0,0,1-3.12-.6c-2.45,1.24-4.65,1.93-6.27,1.67a4.13,4.13,0,0,1-2.19-1A12.87,12.87,0,0,1,49.56,83.48Zm-14.22-15a8.93,8.93,0,0,1-1.32,2l0,0c1.28-1,3-2.27,4.18-3.31A11.3,11.3,0,0,0,35.34,68.45ZM22,66.37Zm0,0h0Zm0,0h0ZM21.75,66a1.83,1.83,0,0,1,.26.36A1.58,1.58,0,0,0,21.75,66Z"/><path class="cls-1" d="M32.09,238.52h-.33a2.66,2.66,0,0,1-2-1.35,1.2,1.2,0,0,1-.16-.47c-1.56,1-2.54,1.4-3.34,1.24a1.6,1.6,0,0,1-1.08-.77,1.28,1.28,0,0,1-.1-1.31L22,237.61a1.21,1.21,0,0,1-.93.12,1.23,1.23,0,0,1-.75-.57,1.74,1.74,0,0,1,.35-2.08l-1.29.94c-.44.32-.92.67-1.16.86l-.13.15a1.24,1.24,0,0,1-1,.41,1.21,1.21,0,0,1-.94-.61,1.12,1.12,0,0,1,.26-1.56l.37-.41a1.17,1.17,0,0,1-.59-.52l0-.06a2.65,2.65,0,0,1,.38-2.74,1.15,1.15,0,0,1-.38-.41,1.22,1.22,0,0,1,.45-1.67,1.2,1.2,0,0,1,.31-.13c.18-.1.53-.32.84-.53a1.21,1.21,0,0,1,1-.18,1.2,1.2,0,0,1,.79.58,2,2,0,0,1,.16,1.63l3.61-2.08a1.22,1.22,0,0,1,.9-.13,5.54,5.54,0,0,1,3-.83,2.72,2.72,0,0,1,2.16,1.41,1.4,1.4,0,0,1,.09,1.3l3-1.75a1.23,1.23,0,0,1,1.63.37,1.26,1.26,0,0,1,.11,1.16c2-1.47,3-1.94,3.8-1.77a1.42,1.42,0,0,1,1,.69c.22.38.71,1.22-.59,2.91,1.1-1,2.21-2.07,3.2-3.14a1.26,1.26,0,0,1,1-.38,1.19,1.19,0,0,1,.92.61c.55.94.18,1.43-2.93,4.42a63.12,63.12,0,0,0,6-4.73,1.24,1.24,0,0,1,1-.29,1.2,1.2,0,0,1,.87.59,1.13,1.13,0,0,1,.1,1.14l2.75-1.59a1.23,1.23,0,0,1,1.41,2c-1.42,1.21-3,2.6-4.15,3.76.54-.34,1.18-.76,1.95-1.3a26.51,26.51,0,0,1,5.84-4.45h0a1,1,0,0,1,.85-.16,1.23,1.23,0,0,1,.42,2.25l-.57.45c-1.9,1.53-3.53,2.78-4.93,3.77a3.1,3.1,0,0,0-.44.6c1.49-.5,4.91-3.31,6.46-4.58,2.64-2.18,3.3-2.68,4.14-2.53a1.31,1.31,0,0,1,.9.63,2.44,2.44,0,0,1,.36,1.29l3-1.74a1.23,1.23,0,0,1,1.66,1.71l2.95-1.71a1.23,1.23,0,0,1,1.84,1c1.76-1.08,2.66-1.39,3.39-1.23a1.47,1.47,0,0,1,.65.32,6.14,6.14,0,0,1,3.49-1A2.72,2.72,0,0,1,82.56,229a4.37,4.37,0,0,1,3-.92,2.15,2.15,0,0,1,1.56,1.09c.58,1,.24,2.12-1.3,3.71a48.6,48.6,0,0,0,4.36-4,1.23,1.23,0,0,1,1-.35,1.21,1.21,0,0,1,.91.6,2.61,2.61,0,0,1,.28,1.83c1-.73,2.1-1.48,3.1-2.21a1.26,1.26,0,0,1,1-.21,1.22,1.22,0,0,1,.81.59,2.26,2.26,0,0,1,.31,1.11l2.7-1.56a1.17,1.17,0,0,1,.93-.12,1.26,1.26,0,0,1,.75.57,1.35,1.35,0,0,1,.14,1.16l2.79-1.61a1.23,1.23,0,0,1,1.68.45,1.7,1.7,0,0,1-.08,1.91c.88-.7,1.78-1.45,2.66-2.22a1.24,1.24,0,0,1,1-.29,1.26,1.26,0,0,1,.76.44,4.2,4.2,0,0,1,3-1.13,2.39,2.39,0,0,1,1.79,1.19,4.33,4.33,0,0,1,3-1.13,2.33,2.33,0,0,1,1.76,1.22,1.25,1.25,0,0,1,.16.72c1.76-1.17,2.81-1.62,3.64-1.45a1.51,1.51,0,0,1,1,.73,2.18,2.18,0,0,1,.27,1.49l3.35-1.94a1.22,1.22,0,0,1,1.67.45c.91,1.57-.92,2.66-3,3.91-1,.59-3.21,1.91-3.61,2.65,1.46-.24,5.79-3.27,9.72-6.85a1.27,1.27,0,0,1,1-.31,1.22,1.22,0,0,1,.87.6,2.39,2.39,0,0,1-.07,2.37,2.22,2.22,0,0,1,.25.35,2.36,2.36,0,0,1-.17,2.32,1.08,1.08,0,0,1,.18.24,1.23,1.23,0,0,1-.45,1.67l-2.53,1.46a1.23,1.23,0,0,1-1.6-.32,1.24,1.24,0,0,1,0-1.49c-1,.69-2,1.31-2.84,1.81a1.24,1.24,0,0,1-1.59-.3l-.06-.09a6.08,6.08,0,0,1-3.4,1,2.06,2.06,0,0,1-1.52-1,2.43,2.43,0,0,1-.36-1.24l-2.93,1.69a1.23,1.23,0,0,1-1.67-.45,2.22,2.22,0,0,1-.32-1.24c-2.33,1.66-3.21,2.09-4,1.91a1.36,1.36,0,0,1-.94-.67,1.67,1.67,0,0,1-.21-.5c-1.23,1.08-2.21,1.62-3.16,1.5a1.94,1.94,0,0,1-1.46-1,1.09,1.09,0,0,1-.14-.38c-1.15,1-2.11,1.54-3,1.43a2,2,0,0,1-1.5-1,6,6,0,0,1-3.32.93,2,2,0,0,1-1.71-2l-2.5,1.44a1.22,1.22,0,0,1-1.67-.45,1.54,1.54,0,0,1-.2-1.13l-.53.31c-1,.63-1.88,1.1-2.25,1.29a1.24,1.24,0,0,1-1.79-.93c-1.71.92-2.88,1.31-3.53,1.18a1.54,1.54,0,0,1-.82-.47,6.26,6.26,0,0,1-3.48,1,2.46,2.46,0,0,1-1.87-1.24c-.56-1,.27-1.56.93-2a30.9,30.9,0,0,0,5.24-4.37,33.77,33.77,0,0,0-4.73,3.78c-2.71,2.44-4.06,3.61-5.3,3.41a1.52,1.52,0,0,1-1.13-.78,2.6,2.6,0,0,1-.25-2.06c-.3.28-.59.57-.88.87l-1.34,1.42a1.22,1.22,0,0,1-1.8-1.66c.19-.22.52-.57.94-1l-.13.09c-3.85,2.7-4.61,3.16-5.45,3a1.34,1.34,0,0,1-.85-.62,1.24,1.24,0,0,1,0-1.18l-2.82,1.63a1.25,1.25,0,0,1-1.68-.45,1.36,1.36,0,0,1-.2-1.13l-2.73,1.58a1.25,1.25,0,0,1-1.68-.45l-.07-.14c-1.42.87-2.6,1.31-3.55,1.13a2,2,0,0,1-1.42-1c0-.08-.09-.16-.13-.24-1.68,1-2.87,1.3-3.72,1.14a1.85,1.85,0,0,1-1.3-.9,1.28,1.28,0,0,1,0-1.54l-3.44,2a1.23,1.23,0,0,1-1.57-.3,5.77,5.77,0,0,1-3.16.84,2,2,0,0,1-1.1-.53A6.43,6.43,0,0,1,32.09,238.52ZM24.93,231a4.3,4.3,0,0,1-.67,1h0c.64-.5,1.49-1.15,2.1-1.67A5.79,5.79,0,0,0,24.93,231Zm-6.71-1Zm0,0Zm0,0Zm-.14-.19a1.33,1.33,0,0,1,.14.19A1.33,1.33,0,0,0,18.08,229.71Z"/><path class="cls-1" d="M39.89,279.48l-.33,0a2.66,2.66,0,0,1-2-1.35,1.2,1.2,0,0,1-.16-.47c-1.56,1-2.53,1.4-3.34,1.24a1.63,1.63,0,0,1-1.08-.76,1.3,1.3,0,0,1-.1-1.32l-3.05,1.76a1.21,1.21,0,0,1-.93.13,1.27,1.27,0,0,1-.75-.57,1.75,1.75,0,0,1,.35-2.09l-1.29,1c-.44.31-.92.66-1.16.85l-.13.15a1.22,1.22,0,0,1-2-.2,1.11,1.11,0,0,1,.26-1.55l.37-.41a1.28,1.28,0,0,1-.59-.52l0-.07a2.65,2.65,0,0,1,.38-2.74,1.12,1.12,0,0,1-.38-.4,1.23,1.23,0,0,1,.45-1.68,1.2,1.2,0,0,1,.31-.13c.18-.1.53-.32.84-.53a1.21,1.21,0,0,1,1-.18,1.26,1.26,0,0,1,.79.58,2,2,0,0,1,.16,1.64L31,269.7a1.28,1.28,0,0,1,.9-.13,5.62,5.62,0,0,1,3-.83,2.72,2.72,0,0,1,2.16,1.41,1.4,1.4,0,0,1,.09,1.3l3-1.75a1.23,1.23,0,0,1,1.63.38,1.26,1.26,0,0,1,.11,1.16c2-1.47,3-1.94,3.8-1.78a1.45,1.45,0,0,1,1,.69c.22.39.71,1.22-.59,2.91,1.1-1,2.21-2.07,3.2-3.13a1.25,1.25,0,0,1,1-.39,1.22,1.22,0,0,1,.92.61c.55.94.18,1.43-2.93,4.43a64.79,64.79,0,0,0,6-4.73,1.22,1.22,0,0,1,1.88.3,1.13,1.13,0,0,1,.1,1.14l2.75-1.59a1.22,1.22,0,0,1,1.41,2c-1.42,1.22-2.95,2.6-4.15,3.76.54-.33,1.18-.75,2-1.3a26.46,26.46,0,0,1,5.84-4.44h0a1,1,0,0,1,.85-.16,1.24,1.24,0,0,1,.42,2.26c-.1.07-.3.23-.56.45-1.91,1.53-3.54,2.78-4.94,3.77a3.07,3.07,0,0,0-.44.59c1.49-.5,4.91-3.31,6.46-4.58,2.64-2.17,3.3-2.68,4.14-2.53a1.29,1.29,0,0,1,.9.64,2.41,2.41,0,0,1,.36,1.29l3-1.74A1.22,1.22,0,0,1,76,271.4l3-1.7a1.22,1.22,0,0,1,1.6.33,1.13,1.13,0,0,1,.24.65c1.76-1.09,2.66-1.4,3.39-1.23a1.46,1.46,0,0,1,.65.31,6.3,6.3,0,0,1,3.49-1A2.73,2.73,0,0,1,90.36,270a4.33,4.33,0,0,1,3-.93,2.17,2.17,0,0,1,1.56,1.09c.58,1,.24,2.12-1.3,3.72a51.83,51.83,0,0,0,4.36-4,1.21,1.21,0,0,1,1-.36,1.23,1.23,0,0,1,.91.6,2.62,2.62,0,0,1,.28,1.83c1-.72,2.1-1.47,3.1-2.2a1.23,1.23,0,0,1,1-.22,1.26,1.26,0,0,1,.81.59,2.29,2.29,0,0,1,.31,1.11l2.7-1.56a1.21,1.21,0,0,1,.93-.12,1.23,1.23,0,0,1,.75.57,1.35,1.35,0,0,1,.14,1.16l2.79-1.61a1.23,1.23,0,0,1,1.68.45,1.72,1.72,0,0,1-.08,1.92c.88-.71,1.78-1.45,2.66-2.23a1.24,1.24,0,0,1,1-.29,1.26,1.26,0,0,1,.76.44,4.24,4.24,0,0,1,3-1.13,2.39,2.39,0,0,1,1.79,1.19,4.37,4.37,0,0,1,3-1.13,2.35,2.35,0,0,1,1.76,1.23,1.21,1.21,0,0,1,.16.72c1.76-1.18,2.81-1.63,3.64-1.46a1.55,1.55,0,0,1,1,.74,2.15,2.15,0,0,1,.27,1.48l3.35-1.93a1.16,1.16,0,0,1,.93-.12,1.21,1.21,0,0,1,.74.57c.91,1.56-.92,2.65-3,3.91-1,.59-3.22,1.9-3.62,2.65,1.46-.24,5.79-3.27,9.73-6.86a1.2,1.2,0,0,1,1-.3,1.16,1.16,0,0,1,.87.6,2.39,2.39,0,0,1-.07,2.37,1.83,1.83,0,0,1,.25.35,2.36,2.36,0,0,1-.17,2.32,1,1,0,0,1,.18.23,1.23,1.23,0,0,1-.45,1.68l-2.53,1.46a1.23,1.23,0,0,1-1.58-1.82c-1,.69-2,1.31-2.85,1.82a1.23,1.23,0,0,1-1.59-.31l-.06-.08a6.23,6.23,0,0,1-3.4,1,2.1,2.1,0,0,1-1.52-1,2.43,2.43,0,0,1-.36-1.24l-2.93,1.69a1.22,1.22,0,0,1-1.67-.45,2.2,2.2,0,0,1-.32-1.23c-2.33,1.66-3.21,2.08-4,1.91a1.43,1.43,0,0,1-.94-.68,1.73,1.73,0,0,1-.21-.49c-1.23,1.07-2.2,1.61-3.16,1.49a1.94,1.94,0,0,1-1.46-1,1.09,1.09,0,0,1-.14-.38c-1.15,1-2.11,1.54-3,1.43a2,2,0,0,1-1.5-1,6,6,0,0,1-3.32.92,2,2,0,0,1-1.42-1,2,2,0,0,1-.29-1l-2.5,1.44a1.21,1.21,0,0,1-.93.13,1.25,1.25,0,0,1-.74-.57,1.55,1.55,0,0,1-.2-1.13l-.53.3c-1,.64-1.87,1.1-2.25,1.3a1.22,1.22,0,0,1-1.64-.49,1.21,1.21,0,0,1-.15-.44c-1.71.91-2.88,1.3-3.52,1.17a1.5,1.5,0,0,1-.83-.47,6.28,6.28,0,0,1-3.48,1,2.51,2.51,0,0,1-1.87-1.24c-.56-1,.27-1.57.93-2.05a31.6,31.6,0,0,0,5.24-4.36,33.06,33.06,0,0,0-4.73,3.78c-2.71,2.44-4.06,3.61-5.3,3.41a1.57,1.57,0,0,1-1.13-.78,2.62,2.62,0,0,1-.25-2.07l-.88.87-1.34,1.43a1.22,1.22,0,0,1-1.8-1.66c.19-.22.52-.58.94-1l-.13.09c-3.85,2.7-4.61,3.17-5.44,3a1.33,1.33,0,0,1-.86-.62,1.24,1.24,0,0,1,0-1.18l-2.82,1.63a1.23,1.23,0,0,1-1.68-.45,1.35,1.35,0,0,1-.2-1.13l-2.73,1.58a1.23,1.23,0,0,1-1.68-.45l-.07-.14a5.51,5.51,0,0,1-3.55,1.14,2,2,0,0,1-1.42-1,1.34,1.34,0,0,1-.12-.24c-1.69.95-2.88,1.3-3.72,1.15a1.89,1.89,0,0,1-1.31-.91,1.27,1.27,0,0,1,.05-1.53l-3.43,2a1.22,1.22,0,0,1-1.58-.3,5.77,5.77,0,0,1-3.16.84,2.13,2.13,0,0,1-1.1-.52A6.56,6.56,0,0,1,39.89,279.48Zm-7.16-7.58a4.11,4.11,0,0,1-.67,1h0c.64-.49,1.49-1.14,2.1-1.67A6.17,6.17,0,0,0,32.73,271.9Zm-6.71-1Zm0,0h0Zm0,0Zm-.14-.18a1.24,1.24,0,0,1,.14.18A.86.86,0,0,0,25.88,270.67Z"/><path class="cls-2" d="M134.31,63.58c4.92-.22,9.84-.39,14.76-.48s9.84-.22,14.76-.26,9.84-.08,14.76-.05,9.84.15,14.76.27,9.84.25,14.76.29,9.83,0,14.75,0c9.84-.15,19.68-.43,29.52-.53h.89v.91l.13,15.88v1h-1c-5.28.06-10.57,0-15.85,0s-10.57-.08-15.85-.17-10.57-.15-15.86-.3-10.57-.27-15.85-.49v-.2q7.92-.31,15.85-.49c5.29-.14,10.57-.22,15.86-.29s10.56-.15,15.85-.17,10.57,0,15.85,0l-1,1,.14-15.88.89.89c-9.84-.1-19.68-.38-29.52-.53-4.92,0-9.84-.09-14.75,0s-9.84.18-14.76.29-9.84.25-14.76.27-9.84,0-14.76,0-9.84-.14-14.76-.26-9.84-.26-14.76-.47Z"/><path class="cls-2" d="M157.41,79.66c-5.73.21-11.46.38-17.19.47s-11.46.22-17.19.26c-11.46.09-22.92.13-34.38-.17s-22.92-.46-34.38-.31-22.93.41-34.39.5H19v-.86L18.9,63.68v-1h1q10.36-.09,20.72-.09c6.91,0,13.81,0,20.72.14s13.81.14,20.72.3,13.81.29,20.72.53v.2c-6.91.23-13.82.39-20.72.52s-13.81.21-20.72.3-13.81.12-20.72.15-13.81,0-20.72-.09l1-1-.13,15.88-.85-.84c11.46.09,22.92.43,34.39.49s22.92-.06,34.38-.3,22.92-.27,34.38-.17c5.73,0,11.46.14,17.19.25s11.46.27,17.19.47Z"/><path class="cls-2" d="M20.39,152.84a118.75,118.75,0,0,1-.79-15.64c.08-2.6.32-5.21.48-7.82a75.35,75.35,0,0,0,0-7.81c-.12-2.61-.33-5.22-.44-7.82s-.14-5.22-.21-7.82c-.1-5.21.09-10.43.45-15.64l0-.64.56,0c.94.07,1.88.11,2.81.21s1.88.17,2.82.29v.2c-.94.12-1.88.2-2.82.29s-1.87.14-2.81.21l.6-.6c.36,5.21.55,10.43.44,15.64-.07,2.6-.11,5.21-.2,7.82s-.33,5.21-.45,7.82a75.36,75.36,0,0,0,0,7.81c.16,2.61.4,5.22.47,7.82a118.74,118.74,0,0,1-.78,15.64Z"/><path class="cls-2" d="M109.52,164.21c-7.42.64-14.84.8-22.26.79-3.71,0-7.42-.28-11.13-.43s-7.42-.19-11.13-.11-7.42.29-11.13.42-7.42.18-11.13.24c-7.41.14-14.83,0-22.25-.27l-.78,0,0-.71.27-5.64.18-2.81c0-.94.12-1.88.2-2.82h.2c.08.94.14,1.88.2,2.82l.17,2.81.27,5.64-.74-.74c7.42-.28,14.84-.41,22.25-.27,3.71.06,7.42.11,11.13.24s7.42.32,11.13.42,7.42.06,11.13-.11,7.42-.4,11.13-.43c7.42,0,14.84.15,22.26.79Z"/><path class="cls-2" d="M114,90.19c2.53-.17,5.07-.27,7.6-.39s5.07-.17,7.61-.24c5.07-.11,10.14-.18,15.21-.16h.9v.88c0,3.08-.1,6.15-.2,9.23l-.3,9.23q-.21,9.23.1,18.45l.27,9.23c.06,3.07.15,6.15.17,9.22.07,6.16.17,12.31.14,18.46v1.08h-1.07c-5.82-.05-11.64-.12-17.46-.28l-8.74-.28q-4.36-.17-8.73-.41V164c2.91-.17,5.82-.3,8.73-.41l8.74-.28c5.82-.16,11.64-.23,17.46-.28l-1.06,1.07c0-6.15.07-12.3.14-18.46,0-3.07.11-6.15.17-9.22l.27-9.23q.28-9.23.1-18.45l-.3-9.23c-.11-3.08-.2-6.15-.21-9.23l.89.89c-5.07,0-10.14-.05-15.21-.16-2.54-.06-5.07-.13-7.61-.24s-5.07-.21-7.6-.39Z"/><path class="cls-2" d="M26.12,90.19c3.66-.36,7.33-.56,11-.67s7.33-.18,11-.06,7.32.43,11,.51,7.32,0,11-.23,7.33-.33,11-.39,7.33-.15,11-.12c7.32.08,14.65.33,22,1v.2c-7.33.63-14.66.88-22,1-3.66,0-7.33-.06-11-.13s-7.32-.2-11-.39-7.32-.3-11-.22-7.33.36-11,.5-7.33.06-11-.05-7.33-.32-11-.68Z"/><path class="cls-2" d="M34.05,102.72c-1.37.15-2.86.27-4.39.34a36.23,36.23,0,0,1-4.66,0l-.39,0,0-.33c.08-1.22.2-2.44.21-3.66s0-2.45-.12-3.67v-.25l.29,0q2.25-.16,4.5-.21c1.51,0,3-.08,4.51,0h.52v.5c0,1.29-.11,2.56-.18,3.81S34.16,101.61,34.05,102.72Zm-.07-.07-.31-3.77c-.07-1.19-.16-2.36-.18-3.52l.52.52c-1.5.05-3,0-4.51,0s-3-.1-4.5-.2l.27-.28c-.08,1.22-.14,2.45-.12,3.67s.13,2.44.21,3.66l-.36-.36a31.57,31.57,0,0,1,4.35,0C30.82,102.38,32.34,102.51,34,102.65Z"/><path class="cls-2" d="M69,107.15l17.89-.2,17.89-.12,35.78-.07H141v.44q0,11.83-.12,23.66l-.14,23.67v.18h-.18c-9.63-.05-19.25,0-28.88,0l-28.88.13L53.87,155,25,155.05h-.53v-.53l0-23.67.12-23.66v-.39H25l22,.12,22,.21v.1l-22,.2-22,.13.38-.38.12,23.66,0,23.67L25,154l28.87.05,28.88.13,28.88.13c9.63,0,19.25.09,28.88,0l-.18.18-.15-23.67q-.09-11.84-.11-23.66l.44.43-35.78-.07-17.89-.12L69,107.25Z"/><path class="cls-2" d="M80.45,131.75c4.88-2.36,9.84-4.5,14.87-6.49,2.53-1,5.09-1.85,7.6-2.84s5-2.07,7.47-3.18c4.93-2.22,9.91-4.33,14.91-6.39s10.07-3.94,15.19-5.7l0,.09c-4.88,2.35-9.84,4.5-14.83,6.6s-10,4-15.11,5.91c-2.53,1-5,1.92-7.54,3s-4.94,2.22-7.41,3.31c-5,2.12-10,4.08-15.15,5.81Z"/><path class="cls-2" d="M25,154.48c4.49-2.2,9.08-4.19,13.73-6,2.33-.88,4.7-1.69,7-2.61s4.61-1.91,6.89-2.94c4.55-2.07,9.15-4,13.77-5.92s9.31-3.64,14-5.24l0,.09C76,134,71.41,136,66.8,138s-9.27,3.73-14,5.45c-2.35.86-4.68,1.76-7,2.73s-4.55,2.07-6.84,3.08c-4.59,2-9.25,3.76-14,5.35Z"/><polygon class="cls-2" points="109.55 9.79 145 9.58 180.44 9.49 215.88 9.4 251.33 9.47 251.7 9.47 251.7 9.84 251.57 57.17 251.57 57.41 251.33 57.41 222.72 57.33 194.12 57.38 136.9 57.53 108.3 57.62 79.69 57.63 22.48 57.66 21.99 57.66 21.99 57.17 21.98 33.5 22.06 9.84 22.06 9.41 22.48 9.41 66.02 9.56 109.55 9.79 109.55 9.89 66.02 10.11 22.48 10.26 22.9 9.84 22.98 33.5 22.97 57.17 22.48 56.68 79.69 56.71 108.3 56.72 136.9 56.81 194.12 56.96 222.72 57.01 251.33 56.93 251.09 57.17 250.96 9.84 251.33 10.21 215.88 10.28 180.44 10.18 145 10.09 109.55 9.89 109.55 9.79"/><path class="cls-2" d="M132.37,34.39q14.77-3.57,29.67-6.51c5-1,10-1.83,14.91-2.84s9.91-2.07,14.85-3.17q14.82-3.35,29.69-6.39c9.91-2,19.85-4,29.83-5.69l0,.1q-14.78,3.52-29.64,6.6T191.91,22.4c-5,1-9.94,1.91-14.89,3s-9.87,2.23-14.82,3.31q-14.83,3.19-29.81,5.8Z"/><path class="cls-2" d="M22.47,57.12q13.63-3.33,27.4-6c4.59-.89,9.21-1.67,13.79-2.6s9.15-1.92,13.72-2.94q13.68-3.12,27.42-5.92t27.57-5.23l0,.1Q118.76,37.78,105,40.63T77.49,46.07c-4.6.87-9.19,1.75-13.76,2.74S54.61,50.88,50,51.89q-13.71,3-27.55,5.33Z"/><path class="cls-2" d="M174.1,183.12c6.4-.11,12.79-.22,19.18-.27s12.79-.08,19.19-.11h.42v.43c0,3.94,0,7.89,0,11.83s0,7.89-.09,11.83c-.09,7.89-.17,15.78-.19,23.67v.16h-.15c-10.32,0-20.65.09-31,.17s-20.64.15-31,.18H150V206.83l.08-11.83.1-11.83v-.33h.33l11.78.1,11.78.18v.1l-11.78.18-11.78.1.33-.33L151,195l.07,11.83V230.5l-.51-.51q15.48,0,31,.18c10.32.08,20.65.19,31,.17l-.16.16c0-7.89-.1-15.78-.19-23.67,0-3.94-.08-7.88-.08-11.83s0-7.89,0-11.83l.43.43c-6.4,0-12.79,0-19.19-.11s-12.78-.16-19.18-.27Z"/><path class="cls-2" d="M180.25,207.73a81.26,81.26,0,0,1,7.82-6.44c1.39-1,2.82-1.88,4.18-2.87s2.67-2.08,4-3.17c2.56-2.2,5.21-4.3,7.89-6.36s5.46-4,8.34-5.76l.06.08c-2.49,2.3-5.1,4.44-7.76,6.53s-5.4,4-8.2,5.95c-1.39.95-2.77,1.93-4.09,3s-2.57,2.2-3.87,3.28a80.14,80.14,0,0,1-8.27,5.86Z"/><path class="cls-2" d="M150.51,230.46a69.62,69.62,0,0,1,7.21-6c1.28-.89,2.61-1.72,3.87-2.64s2.46-1.92,3.65-2.93c2.37-2,4.8-4,7.28-5.89s5.06-3.66,7.73-5.3l.06.08c-2.29,2.15-4.69,4.13-7.14,6.07s-5,3.73-7.6,5.47c-1.29.88-2.56,1.78-3.78,2.76s-2.37,2-3.56,3a70.75,70.75,0,0,1-7.66,5.39Z"/><path class="cls-2" d="M174.1,238.62c6.4-.12,12.79-.23,19.18-.27s12.79-.08,19.19-.11h.42v.44q0,5.91,0,11.83c0,3.94,0,7.89-.09,11.83-.09,7.89-.17,15.78-.19,23.67v.16h-.15c-10.32,0-20.65.09-31,.17s-20.64.15-31,.18H150V262.33l.08-11.83.1-11.83v-.34h.33l11.78.09,11.78.19v.1l-11.78.18-11.78.1.33-.33.1,11.83.07,11.83V286l-.51-.51q15.48,0,31,.17c10.32.09,20.65.2,31,.18l-.16.16c0-7.89-.1-15.78-.19-23.67,0-3.94-.08-7.89-.08-11.83s0-7.89,0-11.83l.43.42c-6.4,0-12.79,0-19.19-.11s-12.78-.15-19.18-.26Z"/><path class="cls-2" d="M180.25,263.23a81.26,81.26,0,0,1,7.82-6.44c1.39-1,2.82-1.88,4.18-2.88s2.67-2.07,4-3.16c2.56-2.2,5.21-4.31,7.89-6.36s5.46-4,8.34-5.76l.06.08c-2.49,2.3-5.1,4.44-7.76,6.53s-5.4,4-8.2,5.94c-1.39,1-2.77,1.94-4.09,3s-2.57,2.2-3.87,3.28a83.31,83.31,0,0,1-8.27,5.86Z"/><path class="cls-2" d="M150.51,286a69.72,69.72,0,0,1,7.21-6c1.28-.89,2.61-1.72,3.87-2.64s2.46-1.91,3.65-2.93c2.37-2,4.8-4,7.28-5.88s5.06-3.66,7.73-5.3l.06.08c-2.29,2.14-4.69,4.13-7.14,6.06s-5,3.74-7.6,5.48c-1.29.88-2.56,1.78-3.78,2.75s-2.37,2-3.56,3a70.75,70.75,0,0,1-7.66,5.39Z"/><path class="cls-2" d="M21.05,180.4c10.05-.34,20.1-.44,30.15-.36,5,.06,10,.22,15.07.24s10,0,15.07-.1q15.07-.28,30.15-.25t30.15.47v.1q-15.07.47-30.15.47t-30.15-.25c-5-.08-10-.15-15.07-.1s-10,.18-15.07.24c-10.05.08-20.1,0-30.15-.36Z"/><path class="cls-2" d="M84.72,208c4.75-.34,9.49-.44,14.23-.37,2.37.08,4.74.22,7.12.26s4.74,0,7.11-.11c4.74-.19,9.49-.26,14.23-.26s9.48.16,14.23.48v.1c-4.75.32-9.49.43-14.23.48s-9.49-.07-14.23-.26c-2.37-.08-4.74-.14-7.11-.11s-4.75.18-7.12.26c-4.74.07-9.48,0-14.23-.37Z"/><path class="cls-2" d="M21.05,208c5.31-.34,10.61-.44,15.92-.37,2.65.08,5.31.22,8,.26s5.3,0,8-.11c5.3-.19,10.61-.26,15.92-.26s10.61.16,15.91.48v.1c-5.3.32-10.61.43-15.91.48s-10.62-.07-15.92-.26c-2.66-.08-5.31-.14-8-.11s-5.31.18-8,.26c-5.31.07-10.61,0-15.92-.37Z"/><line class="cls-3" x1="23.43" y1="189.18" x2="49.13" y2="189.18"/><line class="cls-3" x1="23.43" y1="193.81" x2="72.77" y2="193.81"/><line class="cls-3" x1="23.43" y1="198.43" x2="108.76" y2="198.43"/><line class="cls-3" x1="23.43" y1="203.32" x2="106.19" y2="203.32"/><path class="cls-2" d="M21.05,217.21q15.08-.5,30.15-.36c5,.06,10,.23,15.07.24s10,0,15.07-.1q15.07-.27,30.15-.24t30.15.46v.1q-15.07.47-30.15.47t-30.15-.24c-5-.08-10-.15-15.07-.1s-10,.18-15.07.24c-10.05.07-20.1,0-30.15-.37Z"/><path class="cls-2" d="M194.91,161.43a79.13,79.13,0,0,1,10-.37c1.66.07,3.32.22,5,.26s3.32,0,5-.11c3.33-.19,6.65-.26,10-.26s6.64.16,10,.48v.1c-3.33.32-6.65.43-10,.48s-6.65-.07-10-.26c-1.66-.08-3.32-.14-5-.11s-3.33.18-5,.25a79.12,79.12,0,0,1-10-.36Z"/><path class="cls-2" d="M151.94,161.43a95.23,95.23,0,0,1,10.94-.37c1.82.07,3.65.22,5.47.26s3.65,0,5.47-.11c3.64-.19,7.29-.26,10.94-.26s7.29.16,10.93.48v.1c-3.64.32-7.29.43-10.93.48s-7.3-.07-10.94-.26c-1.82-.08-3.65-.14-5.47-.11s-3.65.18-5.47.25a95.22,95.22,0,0,1-10.94-.36Z"/><line class="cls-3" x1="153.58" y1="142.6" x2="171.24" y2="142.6"/><line class="cls-3" x1="153.58" y1="147.23" x2="187.48" y2="147.23"/><line class="cls-3" x1="153.58" y1="151.85" x2="212.21" y2="151.85"/><line class="cls-3" x1="153.58" y1="156.74" x2="210.44" y2="156.74"/><path class="cls-2" d="M151.94,170.63q10.37-.49,20.72-.36c3.45.06,6.9.23,10.35.24s6.91,0,10.36-.1c6.91-.18,13.81-.28,20.71-.24s13.81.15,20.72.46v.1c-6.91.31-13.81.45-20.72.47s-13.8-.06-20.71-.24c-3.45-.08-6.9-.16-10.36-.1s-6.9.17-10.35.24c-6.91.07-13.81,0-20.72-.37Z"/><path class="cls-2" d="M84.72,249.33c4.75-.34,9.49-.44,14.23-.36,2.37.07,4.74.21,7.12.25s4.74,0,7.11-.11c4.74-.19,9.49-.26,14.23-.26s9.48.17,14.23.48v.1c-4.75.32-9.49.44-14.23.49s-9.49-.07-14.23-.26c-2.37-.09-4.74-.14-7.11-.12s-4.75.19-7.12.26c-4.74.07-9.48,0-14.23-.37Z"/><path class="cls-2" d="M21.05,249.33c5.31-.34,10.61-.44,15.92-.36,2.65.07,5.31.21,8,.25s5.3,0,8-.11c5.3-.19,10.61-.26,15.92-.26s10.61.17,15.91.48v.1c-5.3.32-10.61.44-15.91.49s-10.62-.07-15.92-.26c-2.66-.09-5.31-.14-8-.12s-5.31.19-8,.26c-5.31.07-10.61,0-15.92-.37Z"/><line class="cls-3" x1="23.43" y1="230.5" x2="49.13" y2="230.5"/><line class="cls-3" x1="23.43" y1="235.13" x2="72.77" y2="235.13"/><line class="cls-3" x1="23.43" y1="239.76" x2="108.76" y2="239.76"/><line class="cls-3" x1="23.43" y1="244.64" x2="106.19" y2="244.64"/><path class="cls-2" d="M84.72,284.83c4.75-.34,9.49-.44,14.23-.36,2.37.07,4.74.21,7.12.25s4.74,0,7.11-.11c4.74-.19,9.49-.26,14.23-.26s9.48.16,14.23.48v.1c-4.75.32-9.49.43-14.23.49s-9.49-.07-14.23-.26c-2.37-.09-4.74-.15-7.11-.12s-4.75.19-7.12.26c-4.74.07-9.48,0-14.23-.37Z"/><path class="cls-2" d="M21.05,284.83c5.31-.34,10.61-.44,15.92-.36,2.65.07,5.31.21,8,.25s5.3,0,8-.11c5.3-.19,10.61-.26,15.92-.26s10.61.16,15.91.48v.1c-5.3.32-10.61.43-15.91.49s-10.62-.07-15.92-.26c-2.66-.09-5.31-.15-8-.12s-5.31.19-8,.26c-5.31.07-10.61,0-15.92-.37Z"/><line class="cls-3" x1="23.43" y1="266" x2="49.13" y2="266"/><line class="cls-3" x1="23.43" y1="270.63" x2="72.77" y2="270.63"/><line class="cls-3" x1="23.43" y1="275.26" x2="108.76" y2="275.26"/><line class="cls-3" x1="23.43" y1="280.14" x2="106.19" y2="280.14"/><path class="cls-2" d="M190.64,89.16a40.93,40.93,0,0,1,5.6-.67,45.5,45.5,0,0,1,5.6-.06c1.87.13,3.74.45,5.6.51a42.11,42.11,0,0,0,5.61-.22c1.86-.2,3.73-.35,5.6-.4s3.73-.14,5.6-.12a77.1,77.1,0,0,1,11.21,1v.2a75.75,75.75,0,0,1-11.21,1c-1.87,0-3.73,0-5.6-.12s-3.74-.2-5.6-.4a40.49,40.49,0,0,0-5.61-.22c-1.86,0-3.73.38-5.6.51a47.56,47.56,0,0,1-5.6-.06,41,41,0,0,1-5.6-.68Z"/><path class="cls-2" d="M157.93,134.4c-1.48.17-3,.25-4.44.38l-.45,0,0-.52c-.24-3.75-.37-7.51-.4-11.26,0-1.87,0-3.75,0-5.63s.18-3.75.27-5.63q.38-5.62.22-11.26c-.1-3.75-.36-7.5-.47-11.26l0-.78.84,0c3.09-.13,6.19-.14,9.28-.21s6.2,0,9.29,0,6.19.16,9.29.31l4.64.25c1.55.12,3.1.21,4.65.36v.2c-1.55.16-3.1.25-4.65.37l-4.64.25c-3.1.15-6.19.25-9.29.3s-6.19.08-9.29,0-6.19-.09-9.28-.21l.82-.82c-.11,3.76-.38,7.51-.48,11.26s0,7.51.22,11.26c.09,1.88.21,3.76.28,5.63s.07,3.76,0,5.63c0,3.75-.17,7.51-.41,11.26l-.47-.47c1.48.12,3,.2,4.44.37Z"/><path class="cls-2" d="M231.29,134.4c-3,.38-6.11.55-9.17.68s-6.11.17-9.17,0-6.11-.43-9.17-.5-6.11,0-9.17.22-6.11.35-9.17.39-6.11.15-9.17.13c-6.11-.09-12.23-.34-18.34-1v-.2c6.11-.63,12.23-.88,18.34-1,3.06,0,6.11.06,9.17.13s6.11.2,9.17.39,6.11.3,9.17.23,6.11-.37,9.17-.51,6.11-.05,9.17.06,6.12.29,9.17.67Z"/><path class="cls-2" d="M188.33,120a7.58,7.58,0,0,1-3.92-3.29,13.72,13.72,0,0,1-.93-2.42c-.25-.81-.51-1.62-.7-2.47a9.3,9.3,0,0,1,.28-5.17,8.59,8.59,0,0,1,3.12-4.1l.07.07a16.85,16.85,0,0,0-2.18,4.37,15.26,15.26,0,0,0-.58,2.33,17.85,17.85,0,0,0-.17,2.44,6.72,6.72,0,0,0,.47,2.42,8.84,8.84,0,0,0,1.32,2.08,24.8,24.8,0,0,0,3.27,3.65Z"/><path class="cls-2" d="M204.85,107.6a8,8,0,0,1,.69,3.29,8.51,8.51,0,0,1-.59,3.34,12.4,12.4,0,0,1-1.79,2.86,17.49,17.49,0,0,1-2.26,2.46,9,9,0,0,1-2.88,1.78,12.05,12.05,0,0,1-1.64.53,10.8,10.8,0,0,1-1.71.21,9.42,9.42,0,0,1-6.34-2l0-.09a13.09,13.09,0,0,0,6.24,1.06,12.2,12.2,0,0,0,5.95-1.89,7.45,7.45,0,0,0,2.33-2.21,9.55,9.55,0,0,0,1.26-2.94,16.34,16.34,0,0,0,.6-6.33Z"/><path class="cls-2" d="M186.18,102.58a8.21,8.21,0,0,1,4.91-3.25,13.08,13.08,0,0,1,3-.13,24.72,24.72,0,0,1,2.95.28,9.11,9.11,0,0,1,2.84,1,9.55,9.55,0,0,1,2.44,1.81,9.13,9.13,0,0,1,2.54,5.34l-.09,0a14.66,14.66,0,0,0-3.21-4.62,13,13,0,0,0-4.67-3,7.61,7.61,0,0,0-2.8-.49,9.61,9.61,0,0,0-2.77.62,18.53,18.53,0,0,0-5.06,2.51Z"/><path class="cls-2" d="M190.18,114.3a35.2,35.2,0,0,1-.58-4.42c0-.74-.1-1.48-.1-2.22s.05-1.49.07-2.23V105l.34.16a28.1,28.1,0,0,0,5.06,1.77c1.73.47,3.43,1,5.12,1.61l.94.31-.8.61c-1.06.83-2.17,1.59-3.29,2.34s-2.27,1.46-3.46,2.12l-.06-.08c1-.95,2-1.86,3-2.72s2.07-1.72,3.16-2.51l.14.93c-1.67-.65-3.34-1.28-5-2a28.91,28.91,0,0,0-5-1.86l.35-.26c.09.74.2,1.48.27,2.22s.08,1.48.1,2.22a35.09,35.09,0,0,1-.18,4.46Z"/><path class="cls-2" d="M7.77,243.57a77.09,77.09,0,0,1,.37,9.84c-.07,1.64-.22,3.27-.26,4.91s0,3.28.12,4.92c.18,3.28.25,6.56.25,9.83s-.16,6.56-.48,9.84h-.1c-.32-3.28-.43-6.56-.48-9.84s.07-6.55.26-9.83c.08-1.64.14-3.28.11-4.92s-.18-3.27-.25-4.91a77.08,77.08,0,0,1,.36-9.84Z"/><path class="cls-2" d="M7.77,177.84c.34,5.48.44,10.95.37,16.43-.07,2.74-.23,5.48-.25,8.22s0,5.48.11,8.22c.18,5.47.25,10.95.25,16.43s-.16,11-.48,16.43h-.1c-.32-5.47-.43-10.95-.48-16.43s.07-11,.26-16.43c.08-2.74.15-5.48.1-8.22s-.18-5.48-.24-8.22c-.08-5.48,0-11,.36-16.43Z"/><path class="cls-2" d="M7.77,115.34c.34,5.21.44,10.41.37,15.62-.07,2.61-.22,5.21-.26,7.82s0,5.2.12,7.81c.18,5.21.25,10.42.25,15.62s-.16,10.42-.48,15.63h-.1c-.32-5.21-.43-10.42-.48-15.63s.07-10.41.26-15.62c.08-2.61.14-5.21.11-7.81s-.18-5.21-.25-7.82c-.08-5.21,0-10.41.36-15.62Z"/><path class="cls-2" d="M7.77,7.91c.34,6.19.44,12.39.37,18.58-.07,3.1-.23,6.2-.25,9.3s0,6.19.11,9.29c.18,6.2.25,12.39.25,18.59s-.16,12.39-.48,18.59h-.1c-.32-6.2-.43-12.39-.48-18.59s.07-12.39.26-18.59c.08-3.1.15-6.19.1-9.29s-.18-6.2-.24-9.3c-.08-6.19,0-12.39.36-18.58Z"/><path class="cls-2" d="M.58,202.6A77,77,0,0,1,1,212.43c-.07,1.64-.22,3.28-.25,4.92s0,3.28.11,4.92c.19,3.28.25,6.55.26,9.83s-.17,6.56-.49,9.83H.48c-.31-3.27-.43-6.55-.48-9.83s.07-6.55.26-9.83c.09-1.64.14-3.28.11-4.92s-.18-3.28-.25-4.92a77,77,0,0,1,.36-9.83Z"/><path class="cls-2" d="M.58,136.87c.34,5.47.44,10.95.37,16.43-.07,2.74-.23,5.48-.24,8.22s0,5.48.1,8.21c.19,5.48.25,11,.26,16.44s-.17,11-.49,16.43H.48C.17,197.12.05,191.65,0,186.17s.07-11,.26-16.44c.08-2.73.15-5.47.1-8.21S.18,156,.12,153.3c-.08-5.48,0-11,.36-16.43Z"/><path class="cls-2" d="M.58,74.37C.92,79.57,1,84.78,1,90,.88,92.6.73,95.2.7,97.8s0,5.21.11,7.82c.19,5.2.25,10.41.26,15.62S.9,131.66.58,136.87H.48C.17,131.66.05,126.45,0,121.24s.07-10.42.26-15.62c.09-2.61.14-5.21.11-7.82S.19,92.6.12,90c-.07-5.21,0-10.42.36-15.62Z"/><line class="cls-4" x1="21.63" y1="173.15" x2="143.89" y2="173.15"/><line class="cls-4" x1="21.63" y1="3" x2="143.89" y2="3"/><line class="cls-4" x1="151.43" y1="234.14" x2="212.34" y2="234.14"/></g></g></svg>